<svg width="13" height="14" viewBox="0 0 13 14" fill="none" xmlns="http://www.w3.org/2000/svg">
<path d="M4.80797 10.1159C3.4642 10.1159 2.32693 9.65055 1.39616 8.71977C0.465386 7.789 0 6.65173 0 5.30797C0 3.9642 0.465386 2.82693 1.39616 1.89616C2.32693 0.965386 3.4642 0.5 4.80797 0.5C6.15173 0.5 7.289 0.965386 8.21977 1.89616C9.15055 2.82693 9.61593 3.9642 9.61593 5.30797C9.61593 5.8504 9.52964 6.36202 9.35704 6.84282C9.18445 7.32361 8.95021 7.74893 8.65434 8.11878L12.7966 12.261C12.9322 12.3966 13 12.5692 13 12.7788C13 12.9884 12.9322 13.161 12.7966 13.2966C12.661 13.4322 12.4884 13.5 12.2788 13.5C12.0692 13.5 11.8966 13.4322 11.761 13.2966L7.61878 9.15434C7.24893 9.45021 6.82361 9.68445 6.34282 9.85704C5.86202 10.0296 5.3504 10.1159 4.80797 10.1159ZM4.80797 8.63656C5.73257 8.63656 6.51849 8.31294 7.16572 7.66572C7.81294 7.01849 8.13656 6.23257 8.13656 5.30797C8.13656 4.38336 7.81294 3.59744 7.16572 2.95021C6.51849 2.30299 5.73257 1.97937 4.80797 1.97937C3.88336 1.97937 3.09744 2.30299 2.45021 2.95021C1.80299 3.59744 1.47937 4.38336 1.47937 5.30797C1.47937 6.23257 1.80299 7.01849 2.45021 7.66572C3.09744 8.31294 3.88336 8.63656 4.80797 8.63656Z" fill="#006693"/>
</svg>
